<svg width="100" height="30" viewBox="0 0 100 30" fill="none" xmlns="http://www.w3.org/2000/svg">
<path d="M10.5316 3.96234C10.5316 3.96234 12.8474 3.36277 13.5009 3.06298C14.1543 2.7632 14.1447 2.38503 14.0353 2.16363C13.9163 1.9239 13.5009 1.68417 12.0755 0.725263C10.6501 -0.233646 8.92778 -0.114037 8.15585 0.784813C7.55081 1.49076 7.62089 2.9164 7.67938 3.49765L7.73636 4.27129L8.29803 15.6418C8.41505 17.9764 8.07443 20.3115 7.29568 22.513C6.94829 23.4917 6.55249 24.3453 6.25552 24.8232C5.46846 26.0956 4.17721 27.4612 3.88024 28.1203C3.6236 28.6904 3.70175 29.4391 3.70175 29.4391L4.36477 28.9301C4.87814 28.5371 5.32949 28.0677 5.70342 27.5381C6.12897 26.9339 6.77031 26.0763 7.44342 25.3622C8.65349 24.0775 9.96441 23.2036 10.1157 21.1056L12.135 20.1467V15.6525C12.135 15.6525 15.3417 10.2573 11.1266 5.46127" fill="#FFFBF9"/>
<path d="M11.9564 19.3696C11.9564 19.3696 12.7041 20.6791 12.6436 22.6855C12.631 23.0758 12.5729 23.4633 12.4706 23.8399C11.9448 25.7867 10.769 27.5824 9.1651 27.8221V29.321L8.09619 29.4406L8.15569 25.9038L9.46207 20.4486L11.3629 19.0097L11.9564 19.3696Z" fill="#FFFBF9"/>
<path d="M10.5315 29.321L9.34363 29.3811V27.163H10.1156L10.5315 29.321Z" fill="#FFFBF9"/>
<path d="M13.4003 2.01398L13.0771 2.41403C13.0771 2.41403 12.9259 2.60082 13.0303 2.76115C13.1346 2.92148 13.2259 2.97797 13.2602 2.9225C13.2945 2.86702 13.7099 2.60948 13.6081 2.31173C13.5062 2.01398 13.4003 2.01398 13.4003 2.01398Z" fill="#FFFBF9"/>
<path d="M12.8237 11.855C12.3967 12.026 11.8769 11.7232 11.6641 11.1781L9.64729 6.04253C9.48491 5.62863 9.49195 5.1666 9.66685 4.75794C9.84175 4.34928 10.1702 4.02743 10.5801 3.8631C11.3547 4.89511 11.9845 6.03015 12.4516 7.23607C12.8809 8.34258 13.1696 9.49953 13.3108 10.6793C13.3486 10.904 13.3299 11.1346 13.2564 11.3501C13.1817 11.5682 13.0268 11.749 12.8237 11.855Z" fill="#FCE4DE"/>
<path d="M13.0505 3.11844C12.3995 3.41721 10.1659 3.99693 10.0712 4.02085C10.0633 4.0235 10.0549 4.02447 10.0466 4.02372C10.0384 4.02297 10.0303 4.0205 10.023 4.01648C10.0158 4.01245 10.0094 4.00695 10.0043 4.00032C9.99918 3.99369 9.99549 3.98607 9.99344 3.97794C9.9914 3.96981 9.99103 3.96135 9.99237 3.95307C9.9937 3.94479 9.99672 3.93687 10.0012 3.92982C10.0057 3.92277 10.0116 3.91673 10.0185 3.91207C10.0254 3.90742 10.0332 3.90425 10.0414 3.90277C10.0641 3.89667 12.3607 3.30116 13.0006 3.00698C13.6404 2.71279 13.5511 2.37941 13.5012 2.17837C13.4634 2.02567 13.1821 1.8399 12.5024 1.39505C12.2503 1.23116 11.9407 1.02706 11.5666 0.775122C10.2794 -0.0901359 8.61956 -0.0967526 7.80024 0.744074C7.77452 0.770032 7.74982 0.794972 7.72612 0.824492L7.70545 0.849432L7.67368 0.844851C7.65094 0.839021 7.62703 0.839902 7.60477 0.847391C7.58252 0.85488 7.56286 0.868661 7.54814 0.887096C7.50679 0.942574 7.49772 1.04335 7.5078 1.16703C7.47366 1.23873 7.44352 1.31231 7.41755 1.38742C7.16545 2.10914 7.2194 3.0482 7.26629 3.4905L7.32326 4.26516L7.88544 15.6377C8.00423 17.9811 7.66149 20.325 6.87704 22.5338C6.55234 23.45 6.1515 24.3381 5.83083 24.8557C5.44008 25.4874 4.92327 26.1429 4.46949 26.7211C4.00613 27.3105 3.6058 27.82 3.46109 28.1463C3.21504 28.6939 3.28765 29.4263 3.28815 29.4335C3.28971 29.4496 3.28492 29.4657 3.27482 29.4782C3.26473 29.4908 3.25013 29.4989 3.2342 29.5007H3.22664C3.21172 29.5007 3.19731 29.4952 3.18621 29.4851C3.17512 29.4751 3.16814 29.4612 3.16664 29.4462C3.16311 29.4151 3.08949 28.6741 3.35017 28.0959C3.50143 27.7559 3.90781 27.2408 4.37621 26.6453C4.82999 26.0697 5.34176 25.4171 5.72898 24.7911C6.04562 24.2821 6.44192 23.3996 6.7636 22.4926C7.54262 20.2993 7.8828 17.9718 7.76444 15.6448L7.20074 4.27534L7.14427 3.50221C7.09385 3.01003 7.03637 1.91319 7.38528 1.14515C7.45035 1.00054 7.53521 0.865877 7.63738 0.745092L7.65755 0.722188C8.49452 -0.220434 10.2708 -0.244864 11.6362 0.674344C12.0098 0.925778 12.3209 1.12937 12.571 1.29326C13.3192 1.78391 13.5713 1.94882 13.6212 2.14884C13.6711 2.34887 13.776 2.78557 13.0505 3.11844Z" fill="#544743"/>
<path d="M10.1126 29.5918H8.24403V20.4485C8.24326 20.4401 8.24425 20.4316 8.24693 20.4235C8.24961 20.4155 8.25392 20.4081 8.25959 20.4018C8.26526 20.3955 8.27216 20.3905 8.27985 20.3871C8.28755 20.3837 8.29587 20.3819 8.30428 20.3819C8.31269 20.3819 8.32101 20.3837 8.3287 20.3871C8.3364 20.3905 8.3433 20.3955 8.34897 20.4018C8.35464 20.4081 8.35895 20.4155 8.36163 20.4235C8.36431 20.4316 8.3653 20.4401 8.36453 20.4485V29.4696H9.93259C9.84839 29.2986 9.61444 28.9148 9.18789 28.8721C9.17205 28.8703 9.15754 28.8623 9.14746 28.8498C9.13737 28.8374 9.13252 28.8214 9.13394 28.8054C9.13469 28.7974 9.13701 28.7897 9.14074 28.7826C9.14448 28.7756 9.14957 28.7693 9.15571 28.7643C9.16185 28.7592 9.16893 28.7554 9.17653 28.7531C9.18413 28.7508 9.1921 28.7501 9.19999 28.7509C9.82469 28.8136 10.0723 29.4813 10.0823 29.5098L10.1126 29.5918Z" fill="#544743"/>
<path d="M11.2436 29.5918H10.1999C10.1839 29.5918 10.1685 29.5854 10.1571 29.5739C10.1458 29.5625 10.1394 29.5469 10.1394 29.5307C10.1394 29.5145 10.1458 29.499 10.1571 29.4875C10.1685 29.4761 10.1839 29.4697 10.1999 29.4697H11.0621C10.9779 29.2986 10.7439 28.9149 10.3174 28.8721C10.3024 28.8694 10.2891 28.861 10.28 28.8487C10.2708 28.8365 10.2666 28.8212 10.2681 28.8059C10.2697 28.7907 10.2768 28.7765 10.2882 28.7664C10.2995 28.7562 10.3143 28.7507 10.3295 28.751C10.9542 28.8136 11.2018 29.4814 11.2118 29.5099L11.2436 29.5918Z" fill="#544743"/>
<path d="M8.02983 1.68422C8.02983 1.68422 7.82815 1.17525 8.33235 1.48064L8.02983 1.68422Z" fill="#FFFBF9"/>
<path d="M8.72815 1.49227C8.71562 1.50227 8.69969 1.50686 8.68382 1.50505C8.66795 1.50324 8.65344 1.49517 8.64344 1.4826C8.6389 1.477 8.19622 0.925784 7.70563 0.849946L7.67387 0.845366C7.65113 0.839535 7.62721 0.840417 7.60496 0.847906C7.5827 0.855394 7.56305 0.869175 7.54832 0.887611C7.50698 0.943089 7.4979 1.04387 7.50799 1.16755C7.53017 1.42712 7.64109 1.78493 7.73689 2.02059C7.74288 2.03558 7.74274 2.05235 7.7365 2.06723C7.73026 2.08211 7.71844 2.09389 7.70361 2.09999C7.69643 2.10301 7.68871 2.10457 7.68093 2.10457C7.66889 2.10454 7.65714 2.1009 7.64718 2.0941C7.63721 2.0873 7.62947 2.07766 7.62496 2.0664C7.53694 1.84659 7.46762 1.61961 7.41773 1.38793C7.40141 1.30769 7.39063 1.2264 7.38547 1.14464C7.37841 1.00926 7.39454 0.890155 7.45152 0.813809C7.47508 0.782942 7.50579 0.758395 7.54096 0.74233C7.57613 0.726265 7.61467 0.719175 7.65319 0.721685C7.66378 0.721685 7.67437 0.721685 7.68546 0.721685C7.72348 0.726202 7.76119 0.733 7.7984 0.742044C8.3026 0.86318 8.71706 1.3803 8.73571 1.40371C8.74107 1.40998 8.74513 1.41727 8.74766 1.42516C8.75018 1.43304 8.75112 1.44135 8.75042 1.4496C8.74971 1.45785 8.74738 1.46588 8.74355 1.47321C8.73973 1.48054 8.73449 1.48702 8.72815 1.49227Z" fill="#544743"/>
<path d="M7.91853 1.80535C7.90644 1.80528 7.89465 1.80156 7.88467 1.79467C7.8747 1.78777 7.867 1.77802 7.86256 1.76666C7.8429 1.71577 7.75265 1.46891 7.87113 1.36661C7.95382 1.29535 8.09197 1.32284 8.30576 1.45212C8.31581 1.46176 8.32227 1.4746 8.32407 1.48849C8.32586 1.50237 8.32288 1.51646 8.31561 1.52838C8.30834 1.54031 8.29724 1.54936 8.28415 1.554C8.27107 1.55865 8.2568 1.55862 8.24374 1.55391C8.0113 1.41344 7.95534 1.45212 7.94979 1.4567C7.915 1.48622 7.93517 1.61855 7.9745 1.71933C7.97751 1.72674 7.97902 1.73468 7.97895 1.74269C7.97887 1.7507 7.97721 1.75861 7.97406 1.76596C7.97092 1.77331 7.96635 1.77995 7.96062 1.78549C7.95489 1.79103 7.94812 1.79536 7.94071 1.79822C7.93389 1.80213 7.92633 1.80455 7.91853 1.80535Z" fill="#544743"/>
<path d="M9.75914 0.967048C10.3677 0.810792 11.3867 0.671842 12.1546 1.69234C12.1675 1.70999 12.174 1.73165 12.1728 1.75359C12.1716 1.77553 12.1628 1.79635 12.148 1.81246C12.0674 1.90051 11.8591 2.04607 11.363 2.04607C10.6501 2.04607 9.81863 1.32638 9.75914 1.26683C9.69964 1.20728 9.57964 1.01184 9.75914 0.967048Z" fill="#E2C7BC"/>
<path d="M13.0551 2.91435C13.0482 2.91412 13.0414 2.91292 13.0349 2.91079C13.0268 2.90774 12.8357 2.83546 12.8766 2.54484C12.9083 2.3214 13.2683 1.95239 13.3097 1.91116C13.315 1.90464 13.3217 1.89932 13.3292 1.89554C13.3368 1.89176 13.345 1.88961 13.3534 1.88922C13.3618 1.88884 13.3702 1.89022 13.378 1.89329C13.3859 1.89636 13.393 1.90105 13.399 1.90705C13.4049 1.91305 13.4095 1.92024 13.4126 1.92816C13.4156 1.93607 13.417 1.94454 13.4166 1.95302C13.4162 1.9615 13.4141 1.96981 13.4104 1.97741C13.4066 1.98502 13.4013 1.99175 13.3949 1.99718C13.2915 2.09897 13.0182 2.40436 12.9961 2.56214C12.9688 2.75504 13.0742 2.79525 13.0752 2.79576C13.0886 2.8006 13.0999 2.81005 13.1071 2.82246C13.1143 2.83487 13.1169 2.84944 13.1145 2.86361C13.1121 2.87778 13.1048 2.89063 13.0939 2.89991C13.0831 2.90919 13.0693 2.91431 13.0551 2.91435Z" fill="#544743"/>
<path d="M11.8073 7.9069C10.9718 6.10157 9.84747 4.91667 9.83487 4.90395C9.82457 4.89218 9.81915 4.87686 9.81975 4.86117C9.82034 4.84548 9.8269 4.83062 9.83806 4.81969C9.84922 4.80875 9.86412 4.80257 9.87968 4.80243C9.89523 4.80229 9.91024 4.80821 9.92159 4.81895C10.6867 5.67401 11.3288 6.6335 11.829 7.66921" fill="#544743"/>
<path d="M13.999 13.7296H13.9914C13.9759 13.7272 13.962 13.7188 13.9525 13.7061C13.9431 13.6935 13.939 13.6776 13.941 13.6619C13.9914 13.2679 13.8326 12.7457 13.5508 12.3594C13.4561 12.2325 13.3404 12.123 13.2089 12.0357L12.5479 11.5919C12.5345 11.5829 12.5252 11.5689 12.5221 11.553C12.5189 11.5371 12.5221 11.5206 12.531 11.5071C12.5399 11.4936 12.5537 11.4843 12.5695 11.4811C12.5852 11.4779 12.6016 11.4811 12.615 11.4901L13.276 11.9344C13.4192 12.0293 13.5449 12.1487 13.6476 12.2871C13.9501 12.702 14.1139 13.2476 14.0605 13.6766C14.0586 13.6916 14.0513 13.7053 14.0399 13.7151C14.0285 13.7249 14.0139 13.7301 13.999 13.7296Z" fill="#544743"/>
<path d="M11.1785 1.58597C11.1718 1.58603 11.1652 1.58482 11.1589 1.58241L10.7263 1.42972C10.7125 1.42349 10.7014 1.41226 10.6954 1.39825C10.6894 1.38424 10.6888 1.36846 10.6937 1.35402C10.6987 1.33958 10.7088 1.32753 10.7221 1.32025C10.7354 1.31297 10.7509 1.31099 10.7656 1.31469L11.1982 1.46738C11.2116 1.4722 11.2228 1.48161 11.23 1.49397C11.2372 1.50633 11.2399 1.52085 11.2375 1.53498C11.2352 1.54912 11.228 1.56197 11.2172 1.57129C11.2064 1.58061 11.1927 1.58581 11.1785 1.58597Z" fill="#544743"/>
<path d="M10.3033 15.1268C10.3233 15.1268 10.3426 15.1187 10.3568 15.1044C10.371 15.0901 10.3789 15.0707 10.3789 15.0504C10.3789 15.0302 10.371 15.0107 10.3568 14.9964C10.3426 14.9821 10.3233 14.9741 10.3033 14.9741C10.2832 14.9741 10.264 14.9821 10.2498 14.9964C10.2356 15.0107 10.2277 15.0302 10.2277 15.0504C10.2277 15.0707 10.2356 15.0901 10.2498 15.1044C10.264 15.1187 10.2832 15.1268 10.3033 15.1268Z" fill="#E2C7BC"/>
<path d="M6.80192 6.03136C6.80192 6.03136 8.93772 5.47862 9.53973 5.20224C10.1417 4.92587 10.1342 4.57671 10.0333 4.37312C9.92343 4.15172 9.54023 3.93082 8.22629 3.04623C6.91234 2.16163 5.32361 2.27258 4.61168 3.1017C4.05303 3.75268 4.11857 5.06737 4.17252 5.60281L4.22294 6.31537L4.74126 16.8003C4.8499 18.9536 4.53617 21.1074 3.81807 23.138C3.4979 24.0404 3.13286 24.8263 2.86009 25.2686C2.13455 26.4392 0.94413 27.701 0.669846 28.3087C0.432872 28.8345 0.505476 29.5251 0.505476 29.5251L1.11657 29.0559C1.58985 28.6934 2.006 28.2606 2.35085 27.7722C2.74362 27.2154 3.33505 26.4245 3.95521 25.7659C5.07201 24.5815 6.28058 23.7758 6.41974 21.8411L8.28125 20.9565V16.8109C8.28125 16.8109 11.2384 11.8357 7.35049 7.41323" fill="#E2C7BC"/>
<path d="M8.11737 20.2384C8.11737 20.2384 8.80662 21.4457 8.75115 23.2958C8.73955 23.6558 8.68607 24.0132 8.59183 24.3606C8.10679 26.1557 7.02225 27.8114 5.54394 28.0323V29.4147L4.55823 29.5251L4.61117 26.2631L5.81621 21.2329L7.5683 19.906L8.11737 20.2384Z" fill="#E2C7BC"/>
<path d="M6.80191 29.4147L5.70679 29.4696V27.4246H6.41872L6.80191 29.4147Z" fill="#E2C7BC"/>
<path d="M6.55455 27.5636C6.54745 27.5636 6.54041 27.5622 6.53383 27.5595C6.52726 27.5568 6.52128 27.5528 6.51623 27.5478C6.51105 27.5426 6.50694 27.5364 6.50413 27.5296C6.50132 27.5228 6.49988 27.5155 6.49988 27.5081C6.49988 27.5007 6.50132 27.4934 6.50413 27.4866C6.50694 27.4798 6.51105 27.4736 6.51623 27.4684C8.22497 25.659 8.37119 23.7773 8.1927 22.5171C8.07738 21.6943 7.8033 20.9023 7.38598 20.186C7.37945 20.1735 7.37776 20.1591 7.38124 20.1454C7.38473 20.1318 7.39313 20.12 7.4048 20.1122C7.41648 20.1045 7.43059 20.1015 7.44436 20.1037C7.45813 20.106 7.47058 20.1134 7.47926 20.1244C7.9045 20.8532 8.18389 21.6592 8.30161 22.4967C8.48413 23.7824 8.3369 25.7033 6.5959 27.5462C6.5905 27.5518 6.58406 27.5562 6.57696 27.5591C6.56986 27.5621 6.56224 27.5636 6.55455 27.5636Z" fill="#544743"/>
<path d="M9.44742 4.23468L9.14944 4.60369C9.14944 4.60369 9.00877 4.77623 9.10608 4.92383C9.20339 5.07144 9.28658 5.12335 9.31834 5.07296C9.35011 5.02257 9.73078 4.78437 9.63901 4.50953C9.54725 4.23468 9.44742 4.23468 9.44742 4.23468Z" fill="#FFFBF9"/>
<path d="M8.91563 13.3097C8.52185 13.4669 8.04286 13.1875 7.84522 12.6852L5.98422 7.95169C5.90998 7.76274 5.87334 7.56087 5.8764 7.35763C5.87945 7.15438 5.92213 6.95373 6.00201 6.76713C6.08188 6.58054 6.19738 6.41165 6.34192 6.27012C6.48645 6.12859 6.65719 6.01718 6.84438 5.94226C7.5592 6.89287 8.14033 7.93871 8.57127 9.05006C8.96843 10.0702 9.23594 11.137 9.3674 12.225C9.40163 12.4314 9.3843 12.6431 9.31698 12.8409C9.24809 13.0436 9.1043 13.2115 8.91563 13.3097Z" fill="#FCE4DE"/>
<path d="M7.95298 15.7467H7.84155V21.1225H7.95298V15.7467Z" fill="#544743"/>
<path d="M9.12585 5.25316C8.52586 5.52851 6.4662 6.06345 6.37847 6.08584C6.36423 6.08955 6.34911 6.0874 6.33644 6.07986C6.32377 6.07232 6.31458 6.06001 6.31091 6.04563C6.30735 6.0312 6.30953 6.01593 6.31697 6.0031C6.32441 5.99026 6.33653 5.98086 6.35074 5.97692C6.37242 5.97132 8.48855 5.42214 9.07997 5.15085C9.6714 4.87957 9.5877 4.57215 9.54182 4.38739C9.50653 4.24539 9.24686 4.07539 8.62065 3.66516C8.38972 3.51247 8.10283 3.32618 7.75746 3.09358C6.56956 2.29449 5.04183 2.29042 4.28553 3.06406C4.26234 3.08798 4.23965 3.11496 4.21747 3.13837C4.21091 3.146 4.20436 3.15415 4.19881 3.16178C4.18873 3.16178 4.17915 3.15873 4.16906 3.15771C4.14802 3.15234 4.12589 3.15313 4.10527 3.15998C4.08464 3.16683 4.06637 3.17946 4.05259 3.19639C4.01478 3.24729 4.00621 3.34043 4.01579 3.45495C3.98427 3.52111 3.95666 3.58909 3.9331 3.65854C3.70016 4.32632 3.74806 5.19157 3.7894 5.59875L3.83982 6.31132L4.36016 16.7962C4.47139 18.958 4.15604 21.1206 3.43243 23.1584C3.13344 24.0002 2.76386 24.8207 2.47041 25.2961C2.10941 25.8789 1.63445 26.483 1.21546 27.0159C0.7879 27.56 0.418825 28.0293 0.283195 28.3301C0.0537845 28.837 0.120843 29.5124 0.121852 29.5206C0.12326 29.5355 0.118752 29.5505 0.109308 29.5621C0.0998641 29.5737 0.0862501 29.5811 0.0714315 29.5827H0.0663895C0.052546 29.5826 0.0392148 29.5774 0.0289713 29.568C0.0187279 29.5586 0.0122993 29.5457 0.0109275 29.5318C0.00790232 29.5033 -0.0601647 28.8192 0.179835 28.2868C0.321011 27.9733 0.694118 27.4984 1.12622 26.9492C1.5437 26.4158 2.01664 25.8157 2.37361 25.2386C2.66554 24.7673 3.02907 23.9554 3.32806 23.1192C4.0459 21.0963 4.35884 18.9497 4.24873 16.8038L3.73091 6.31895L3.6805 5.60639C3.63461 5.15289 3.57966 4.14207 3.90285 3.43408C3.96164 3.30021 4.03925 3.17558 4.13327 3.06406L4.15192 3.04268C4.92385 2.17335 6.56149 2.15147 7.82048 2.99891C8.16485 3.23049 8.45174 3.4183 8.68216 3.56947C9.37039 4.02093 9.60283 4.17362 9.64871 4.3594C9.69459 4.54518 9.79392 4.94625 9.12585 5.25316Z" fill="#544743"/>
<path d="M6.41572 29.664H4.69287V21.2334C4.69287 21.2185 4.69871 21.2043 4.70912 21.1938C4.71952 21.1833 4.73362 21.1774 4.74833 21.1774C4.76304 21.1774 4.77715 21.1833 4.78755 21.1938C4.79795 21.2043 4.80379 21.2185 4.80379 21.2334V29.5515H6.25186C6.17421 29.3938 5.95841 29.04 5.56514 29.0003C5.55789 28.9996 5.55085 28.9974 5.54443 28.9939C5.53801 28.9905 5.53233 28.9857 5.52772 28.98C5.52311 28.9743 5.51965 28.9678 5.51755 28.9607C5.51545 28.9537 5.51474 28.9463 5.51547 28.939C5.5162 28.9317 5.51835 28.9246 5.5218 28.9181C5.52524 28.9116 5.52992 28.9059 5.53556 28.9012C5.54121 28.8966 5.5477 28.8931 5.55468 28.891C5.56166 28.8888 5.56898 28.8881 5.57623 28.8889C6.15202 28.9469 6.38295 29.5627 6.3895 29.5887L6.41572 29.664Z" fill="#544743"/>
<path d="M7.45653 29.6641H6.49401C6.48625 29.6648 6.47842 29.6639 6.47102 29.6614C6.46362 29.6589 6.45682 29.6549 6.45105 29.6496C6.44529 29.6443 6.44068 29.6379 6.43752 29.6307C6.43437 29.6235 6.43274 29.6157 6.43274 29.6078C6.43274 29.6 6.43437 29.5922 6.43752 29.585C6.44068 29.5778 6.44529 29.5713 6.45105 29.566C6.45682 29.5607 6.46362 29.5567 6.47102 29.5542C6.47842 29.5517 6.48625 29.5508 6.49401 29.5516H7.29115C7.21401 29.3938 6.99821 29.0401 6.60494 29.0004C6.59029 28.9989 6.57683 28.9916 6.56752 28.9801C6.55821 28.9686 6.5538 28.9538 6.55527 28.939C6.55674 28.9242 6.56397 28.9107 6.57536 28.9013C6.58676 28.8919 6.60138 28.8874 6.61603 28.8889C7.19182 28.9469 7.41972 29.5628 7.4293 29.5887L7.45653 29.6641Z" fill="#544743"/>
<path d="M4.49539 3.93085C4.49539 3.93085 4.31035 3.46361 4.7732 3.74405L4.49539 3.93085Z" fill="#FFFBF9"/>
<path d="M5.13936 3.75369C5.13364 3.75829 5.12708 3.76171 5.12005 3.76374C5.11302 3.76577 5.10566 3.76638 5.0984 3.76552C5.09113 3.76467 5.08411 3.76238 5.07773 3.75878C5.07134 3.75517 5.06573 3.75033 5.06121 3.74453C5.05717 3.73944 4.64877 3.23199 4.19701 3.16176C4.18693 3.16176 4.17735 3.1587 4.16726 3.15768C4.14621 3.15232 4.12409 3.1531 4.10346 3.15995C4.08284 3.1668 4.06457 3.17943 4.05079 3.19637C4.01298 3.24726 4.00441 3.34041 4.01399 3.45493C4.03466 3.69414 4.13751 4.02396 4.22525 4.24129C4.22803 4.24814 4.22945 4.25548 4.22941 4.26288C4.22937 4.27028 4.22788 4.2776 4.22502 4.28442C4.22216 4.29123 4.21799 4.29741 4.21275 4.30259C4.20751 4.30777 4.2013 4.31184 4.19449 4.31458C4.18796 4.3174 4.18091 4.31878 4.17382 4.31866C4.16294 4.31838 4.15238 4.31492 4.14342 4.30868C4.13447 4.30244 4.12751 4.2937 4.1234 4.28354C4.04243 4.0812 3.97867 3.87228 3.93281 3.65902C3.91763 3.58517 3.90752 3.51034 3.90256 3.43508C3.896 3.30936 3.91113 3.19942 3.96407 3.12969C3.98583 3.10086 4.01439 3.07798 4.04715 3.06313C4.07991 3.04828 4.11583 3.04195 4.15163 3.04469C4.16121 3.04469 4.1713 3.04469 4.18138 3.04469C4.21651 3.04909 4.25136 3.05555 4.28575 3.06403C4.75012 3.1755 5.1328 3.65292 5.14995 3.6748C5.15885 3.6867 5.16274 3.70167 5.16076 3.71645C5.15877 3.73123 5.15108 3.74462 5.13936 3.75369Z" fill="#544743"/>
<path d="M4.39248 4.04224C4.38158 4.04209 4.37096 4.03868 4.36198 4.03242C4.353 4.02617 4.34607 4.01736 4.34206 4.00712C4.32391 3.96182 4.24122 3.73227 4.35013 3.6376C4.42627 3.57245 4.55181 3.59739 4.75047 3.717C4.75678 3.72072 4.76229 3.72568 4.76668 3.73158C4.77108 3.73748 4.77426 3.74421 4.77604 3.75136C4.77783 3.75852 4.77818 3.76597 4.77708 3.77326C4.77597 3.78056 4.77344 3.78756 4.76963 3.79386C4.76589 3.80018 4.76096 3.80569 4.75511 3.81009C4.74925 3.81448 4.7426 3.81767 4.73553 3.81946C4.72846 3.82126 4.72111 3.82163 4.71389 3.82056C4.70668 3.81948 4.69975 3.81698 4.69349 3.8132C4.47921 3.68341 4.42727 3.71904 4.42223 3.72311C4.39047 3.75059 4.40862 3.87275 4.44543 3.96538C4.44812 3.97223 4.44945 3.97955 4.44934 3.98692C4.44923 3.99429 4.44767 4.00156 4.44477 4.00832C4.44186 4.01509 4.43767 4.0212 4.43241 4.02632C4.42716 4.03145 4.42096 4.03547 4.41417 4.03816C4.40726 4.04091 4.3999 4.04229 4.39248 4.04224Z" fill="#544743"/>
<path d="M6.09008 3.2676C6.65075 3.12356 7.59058 2.9953 8.29898 3.93639C8.31084 3.95268 8.31668 3.97264 8.31548 3.99281C8.31428 4.01299 8.30613 4.0321 8.29243 4.04684C8.21831 4.12827 8.02621 4.26264 7.5684 4.26264C6.91294 4.26264 6.14454 3.60098 6.09008 3.54397C6.03563 3.48697 5.92219 3.30832 6.09008 3.2676Z" fill="#FCE4DE"/>
<path d="M9.12929 5.06479C9.12294 5.06481 9.11664 5.06378 9.11063 5.06173C9.10307 5.06173 8.9266 4.99251 8.96441 4.72428C8.99366 4.52069 9.32592 4.17815 9.36374 4.13998C9.37417 4.12945 9.38831 4.12354 9.40307 4.12354C9.41782 4.12354 9.43196 4.12945 9.44239 4.13998C9.45282 4.15051 9.45868 4.16479 9.45868 4.17968C9.45868 4.19457 9.45282 4.20885 9.44239 4.21938C9.3471 4.31558 9.095 4.59704 9.07483 4.74006C9.04962 4.9182 9.14693 4.95536 9.14794 4.95587C9.1604 4.9602 9.17092 4.96886 9.17762 4.98031C9.18433 4.99176 9.18678 5.00524 9.18453 5.01834C9.18229 5.03145 9.1755 5.04332 9.16537 5.05183C9.15525 5.06034 9.14246 5.06493 9.12929 5.06479Z" fill="#544743"/>
<path d="M7.40396 17.5856C7.39221 17.5855 7.38077 17.5817 7.37118 17.5749C7.36528 17.5705 7.36028 17.5651 7.35647 17.5588C7.35267 17.5525 7.35013 17.5455 7.34901 17.5382C7.34788 17.5309 7.34819 17.5235 7.34992 17.5163C7.35165 17.5092 7.35476 17.5024 7.35908 17.4965C8.23941 16.2826 8.72395 14.9715 8.80059 13.5993C8.8616 12.5004 8.66294 11.3598 8.20967 10.2085C7.72211 8.99374 7.02835 7.87418 6.15959 6.90015C6.15449 6.89487 6.15047 6.88863 6.14776 6.88178C6.14506 6.87493 6.14371 6.86761 6.1438 6.86024C6.1439 6.85287 6.14543 6.84558 6.14831 6.83881C6.15119 6.83203 6.15537 6.8259 6.1606 6.82075C6.16583 6.8156 6.17201 6.81155 6.1788 6.80881C6.18558 6.80608 6.19283 6.80472 6.20013 6.80481C6.20744 6.80491 6.21465 6.80645 6.22136 6.80936C6.22808 6.81227 6.23415 6.81649 6.23925 6.82177C6.25236 6.83551 7.5295 8.17971 8.31151 10.1642C8.77135 11.3313 8.97353 12.4887 8.91202 13.6039C8.83437 14.999 8.34227 16.3309 7.44984 17.5632C7.44441 17.5702 7.43745 17.5759 7.42949 17.5798C7.42153 17.5837 7.41279 17.5856 7.40396 17.5856Z" fill="#544743"/>
<path d="M9.35492 17.0629C9.34456 17.0628 9.33442 17.0598 9.32568 17.0542C9.31904 17.0501 9.31334 17.0447 9.30899 17.0382C9.30464 17.0317 9.30173 17.0243 9.30047 17.0166C9.26184 16.8031 9.18076 16.5998 9.06213 16.4189C8.94349 16.238 8.78976 16.0832 8.61022 15.964C8.29761 15.7492 5.55577 13.8629 5.41762 13.696C5.35738 13.6177 5.31533 13.5267 5.2946 13.4298L5.28704 13.4023L4.84687 10.9857C4.84419 10.9711 4.84739 10.9559 4.85576 10.9437C4.86413 10.9314 4.87698 10.923 4.89149 10.9203C4.906 10.9176 4.92098 10.9208 4.93313 10.9293C4.94528 10.9377 4.95361 10.9507 4.95628 10.9653L5.39493 13.3769L5.40199 13.3998C5.41874 13.4811 5.45319 13.5575 5.50283 13.6237C5.59964 13.7413 7.45157 15.0321 8.67223 15.8709C9.0421 16.1164 9.30228 16.4981 9.39727 16.9346C9.96601 16.7341 9.84601 16.0531 9.79408 15.8439C9.67992 15.4009 9.40562 15.017 9.02517 14.7679L8.41711 14.3607C8.40481 14.3525 8.39625 14.3397 8.39332 14.3251C8.39038 14.3104 8.39332 14.2953 8.40148 14.2828C8.40964 14.2704 8.42234 14.2618 8.43681 14.2588C8.45128 14.2559 8.46632 14.2588 8.47862 14.2671L9.08719 14.6743C9.49012 14.9392 9.78052 15.3465 9.90147 15.8164C10.025 16.3132 9.95189 16.901 9.36904 17.0608C9.36442 17.062 9.35968 17.0627 9.35492 17.0629Z" fill="#544743"/>
<path d="M9.99912 15.0377H9.99206C9.98462 15.037 9.97739 15.0349 9.97079 15.0314C9.96419 15.0278 9.95836 15.023 9.95366 15.0172C9.94895 15.0113 9.94546 15.0046 9.94339 14.9973C9.94133 14.9901 9.94073 14.9825 9.94164 14.975C9.98702 14.6121 9.8408 14.1296 9.58215 13.7744C9.49497 13.6573 9.38835 13.5564 9.26702 13.4761L8.65744 13.0664C8.64638 13.0576 8.639 13.0449 8.6368 13.0309C8.63459 13.0168 8.63772 13.0024 8.64555 12.9906C8.65338 12.9788 8.66534 12.9704 8.67904 12.9671C8.69274 12.9638 8.70717 12.9658 8.71946 12.9727L9.32853 13.3825C9.46065 13.47 9.57667 13.58 9.67139 13.7077C9.95172 14.0904 10.1015 14.5933 10.0526 14.9893C10.0507 15.0024 10.0443 15.0144 10.0345 15.0233C10.0248 15.0321 10.0122 15.0372 9.99912 15.0377Z" fill="#544743"/>
<path d="M7.39891 3.84021C7.39273 3.84023 7.3866 3.83919 7.38076 3.83715L6.98143 3.69769C6.96752 3.69283 6.9561 3.6826 6.94967 3.66923C6.94324 3.65587 6.94233 3.64048 6.94714 3.62644C6.95196 3.6124 6.9621 3.60086 6.97534 3.59437C6.98858 3.58788 7.00383 3.58697 7.01773 3.59183L7.41706 3.73078C7.42925 3.73536 7.43948 3.74408 7.44599 3.75544C7.4525 3.76681 7.45489 3.78011 7.45274 3.79306C7.4506 3.80601 7.44405 3.8178 7.43422 3.8264C7.4244 3.83501 7.41191 3.83989 7.39891 3.84021Z" fill="#544743"/>
<path d="M13.6787 11.0514C13.6787 11.0514 15.3623 10.6157 15.8367 10.3979C16.3112 10.18 16.3051 9.90466 16.2255 9.74433C16.1392 9.56975 15.8367 9.39568 14.8011 8.69839C13.7655 8.00109 12.513 8.08762 11.9519 8.74216C11.5117 9.25469 11.5631 10.2915 11.6055 10.7134L11.6468 11.2733L12.0552 19.538C12.1407 21.2352 11.8931 22.9328 11.3266 24.5331C11.0745 25.2457 10.7866 25.8641 10.5703 26.2127C9.99808 27.1365 9.05775 28.13 8.84346 28.609C8.65691 29.0233 8.71388 29.5679 8.71388 29.5679L9.1959 29.1984C9.56895 28.9123 9.89703 28.571 10.169 28.186C10.555 27.6309 10.9775 27.1026 11.4335 26.6046C12.3139 25.6712 13.2663 25.036 13.3757 23.5111L14.8434 22.8138V19.5482C14.8434 19.5482 17.1749 15.6255 14.1103 12.1406" fill="#E2C7BC"/>
<path d="M14.7144 22.2498C14.7144 22.2498 15.258 23.2016 15.2141 24.6603C15.205 24.9441 15.1628 25.2258 15.0885 25.4996C14.7064 26.9151 13.8512 28.2201 12.686 28.3941V29.4839L11.9091 29.5714L11.9519 27.0006L12.9018 23.0351L14.2828 21.9877L14.7144 22.2498Z" fill="#E2C7BC"/>
<path d="M13.6787 29.4834L12.8156 29.5267V27.9147H13.3767L13.6787 29.4834Z" fill="#E2C7BC"/>
<path d="M13.4846 28.0241C13.4732 28.0242 13.4622 28.0198 13.4539 28.0119C13.4457 28.0036 13.441 27.9924 13.441 27.9806C13.441 27.9689 13.4457 27.9576 13.4539 27.9493C14.8006 26.5242 14.9161 25.0395 14.7754 24.046C14.6845 23.3974 14.4683 22.7731 14.1391 22.2086C14.1327 22.1987 14.1305 22.1867 14.1329 22.1752C14.1353 22.1637 14.1422 22.1537 14.1519 22.1472C14.1617 22.1408 14.1736 22.1386 14.185 22.141C14.1964 22.1435 14.2064 22.1504 14.2127 22.1602C14.548 22.7347 14.7685 23.3701 14.8616 24.0302C15.0058 25.0436 14.8893 26.5568 13.5174 28.0104C13.5131 28.0148 13.508 28.0183 13.5024 28.0206C13.4968 28.023 13.4907 28.0242 13.4846 28.0241Z" fill="#544743"/>
<path d="M15.7642 9.63538L15.5293 9.92498C15.5293 9.92498 15.4184 10.0609 15.495 10.1769C15.5716 10.293 15.6377 10.3347 15.6624 10.2945C15.6871 10.2543 15.9891 10.067 15.9145 9.85067C15.8399 9.63436 15.7642 9.63538 15.7642 9.63538Z" fill="#FFFBF9"/>
<path d="M15.3448 16.788C15.0347 16.9127 14.6571 16.6924 14.5013 16.2959L13.0345 12.5631C12.9169 12.262 12.9223 11.9261 13.0498 11.6292C13.1772 11.3322 13.4162 11.0984 13.7142 10.9791C14.7974 12.4251 15.4832 14.1342 15.7023 15.9335C15.7288 16.0962 15.7148 16.2631 15.6614 16.419C15.6073 16.5788 15.4937 16.7112 15.3448 16.788Z" fill="#FFFBF9"/>
<path d="M14.5858 18.7094H14.498V22.9471H14.5858V18.7094Z" fill="#544743"/>
<path d="M15.5096 10.438C15.0371 10.6549 13.4131 11.0763 13.344 11.0941C13.3332 11.096 13.322 11.0937 13.3128 11.0876C13.3035 11.0815 13.2969 11.0722 13.2942 11.0614C13.2914 11.0507 13.2928 11.0393 13.298 11.0295C13.3033 11.0197 13.3119 11.0122 13.3223 11.0086C13.339 11.004 15.0074 10.5709 15.4733 10.3571C15.9391 10.1433 15.8736 9.89904 15.8378 9.755C15.8101 9.64302 15.6054 9.50916 15.1117 9.18546C14.9297 9.06636 14.7033 8.91824 14.4316 8.73501C13.4953 8.10541 12.2892 8.10134 11.6933 8.71262C11.6751 8.73145 11.657 8.75079 11.6398 8.77064L11.6247 8.78896L11.602 8.78591C11.5854 8.78157 11.568 8.78214 11.5517 8.78756C11.5354 8.79297 11.521 8.803 11.5102 8.81645C11.4805 8.85666 11.4734 8.93046 11.481 9.02004C11.4563 9.07259 11.4344 9.12645 11.4155 9.18138C11.2339 9.70614 11.2718 10.3882 11.304 10.7083L11.3454 11.2717L11.7538 19.538C11.8412 21.241 11.5927 22.9446 11.0227 24.5499C10.7872 25.2146 10.4958 25.8615 10.2623 26.2381C9.97848 26.6962 9.60386 27.1736 9.27361 27.5935C8.93681 28.0221 8.64538 28.3921 8.53849 28.6293C8.3595 29.0273 8.41244 29.5597 8.41294 29.5653C8.41386 29.5713 8.41358 29.5773 8.4121 29.5831C8.41063 29.589 8.40799 29.5944 8.40436 29.5992C8.40073 29.6039 8.39617 29.6079 8.39098 29.6108C8.38578 29.6138 8.38004 29.6156 8.37412 29.6162H8.36958C8.35878 29.6161 8.34838 29.6121 8.34038 29.6047C8.33238 29.5974 8.32734 29.5874 8.32622 29.5765C8.32622 29.5541 8.27025 29.0166 8.45933 28.5947C8.57076 28.3478 8.86269 27.9737 9.20504 27.5406C9.53428 27.1222 9.90739 26.6484 10.1887 26.1934C10.4187 25.8218 10.7071 25.1815 10.9405 24.5224C11.5062 22.9279 11.753 21.236 11.6665 19.5446L11.2576 11.2799L11.2168 10.72C11.1805 10.3637 11.1386 9.56566 11.3923 9.00782C11.4385 8.90226 11.4996 8.80402 11.5738 8.71618L11.5884 8.69938C12.1965 8.0143 13.4877 7.99649 14.48 8.66477C14.7517 8.84699 14.9776 8.9951 15.1591 9.1142C15.7032 9.47048 15.8867 9.59111 15.9225 9.73668C15.9583 9.88224 16.037 10.1958 15.5096 10.438Z" fill="#544743"/>
<path d="M13.3742 29.6798H12.0159V23.0341C12.0159 23.0224 12.0205 23.0111 12.0287 23.0028C12.0369 22.9945 12.0481 22.9899 12.0597 22.9899C12.0714 22.9899 12.0825 22.9945 12.0908 23.0028C12.099 23.0111 12.1036 23.0224 12.1036 23.0341V29.5913H13.2441C13.1831 29.4671 13.0132 29.1882 12.7031 29.1571C12.6915 29.156 12.6808 29.1502 12.6733 29.1411C12.6659 29.132 12.6624 29.1203 12.6635 29.1085C12.6646 29.0968 12.6704 29.086 12.6794 29.0785C12.6884 29.071 12.7 29.0674 12.7117 29.0686C13.1654 29.1144 13.3454 29.5999 13.353 29.6208L13.3742 29.6798Z" fill="#544743"/>
<path d="M14.1948 29.6799H13.4385C13.4269 29.6799 13.4157 29.6752 13.4075 29.6669C13.3993 29.6586 13.3947 29.6473 13.3947 29.6356C13.3947 29.6238 13.3993 29.6126 13.4075 29.6043C13.4157 29.596 13.4269 29.5913 13.4385 29.5913H14.0673C14.0062 29.4671 13.8358 29.1882 13.5257 29.1571C13.5198 29.1565 13.5141 29.1547 13.5089 29.1518C13.5037 29.1488 13.4991 29.1449 13.4955 29.1401C13.4919 29.1353 13.4892 29.1299 13.4878 29.1241C13.4863 29.1182 13.486 29.1122 13.4869 29.1062C13.4874 29.1004 13.4891 29.0948 13.4918 29.0896C13.4945 29.0845 13.4981 29.0799 13.5026 29.0762C13.5071 29.0725 13.5122 29.0698 13.5177 29.0681C13.5233 29.0664 13.5291 29.0659 13.5348 29.0665C13.9886 29.1124 14.1686 29.5979 14.1757 29.6188L14.1948 29.6799Z" fill="#544743"/>
<path d="M11.8606 9.39569C11.8606 9.39569 11.7144 9.02719 12.0794 9.24809L11.8606 9.39569Z" fill="#FFFBF9"/>
<path d="M12.3679 9.25571C12.3589 9.26303 12.3474 9.26645 12.3358 9.26521C12.3243 9.26397 12.3137 9.25817 12.3064 9.24909C12.3029 9.24451 11.9817 8.84445 11.6248 8.79101L11.6021 8.78796C11.5855 8.78362 11.568 8.78419 11.5517 8.78961C11.5355 8.79502 11.5211 8.80505 11.5103 8.8185C11.4805 8.85871 11.4735 8.93251 11.4811 9.02209C11.5091 9.23541 11.5651 9.44403 11.6474 9.64253C11.6518 9.6534 11.6516 9.66555 11.6471 9.67633C11.6426 9.68711 11.634 9.69564 11.6232 9.70004C11.618 9.7023 11.6123 9.70351 11.6066 9.70361C11.5979 9.70356 11.5895 9.70092 11.5823 9.69603C11.5751 9.69114 11.5695 9.68421 11.5663 9.67612C11.5018 9.51664 11.4512 9.35178 11.415 9.18343C11.4033 9.12516 11.3955 9.06615 11.3918 9.00682C11.3809 8.92295 11.3987 8.83783 11.4422 8.76556C11.4594 8.74276 11.482 8.72466 11.5079 8.71292C11.5338 8.70119 11.5622 8.69619 11.5905 8.69838H11.6137C11.6412 8.70148 11.6685 8.70641 11.6953 8.71314C12.0619 8.80119 12.3634 9.17682 12.377 9.19412C12.3805 9.19875 12.383 9.20403 12.3844 9.20964C12.3858 9.21526 12.3861 9.2211 12.3852 9.22683C12.3844 9.23256 12.3824 9.23806 12.3794 9.24301C12.3765 9.24797 12.3726 9.25229 12.3679 9.25571Z" fill="#544743"/>
<path d="M11.7795 9.48318C11.7707 9.48323 11.7622 9.48064 11.7549 9.47574C11.7476 9.47084 11.742 9.46386 11.7387 9.45569C11.7245 9.42006 11.6585 9.23887 11.7452 9.16456C11.8052 9.11366 11.9055 9.13249 12.0608 9.22665C12.0708 9.23278 12.078 9.24262 12.0808 9.25406C12.0837 9.26549 12.0819 9.27759 12.076 9.28773C12.073 9.29271 12.0691 9.29704 12.0645 9.30049C12.0599 9.30393 12.0546 9.30641 12.049 9.30778C12.0434 9.30915 12.0376 9.30939 12.032 9.30849C12.0263 9.30758 12.0209 9.30554 12.016 9.30249C11.8471 9.2007 11.8062 9.22818 11.8022 9.23174C11.777 9.25363 11.7916 9.34983 11.8203 9.42261C11.823 9.42933 11.8239 9.4366 11.8231 9.44378C11.8224 9.45096 11.8198 9.45784 11.8158 9.46381C11.8118 9.46979 11.8064 9.47467 11.8 9.47805C11.7937 9.48142 11.7867 9.48318 11.7795 9.48318Z" fill="#544743"/>
<path d="M13.1176 8.87247C13.5598 8.75897 14.3005 8.65819 14.8586 9.39977C14.868 9.41267 14.8727 9.42847 14.8717 9.44446C14.8708 9.46044 14.8644 9.4756 14.8536 9.48731C14.7951 9.55144 14.6438 9.6568 14.2828 9.6568C13.765 9.6568 13.1605 9.13408 13.1176 9.09031C13.0748 9.04654 12.985 8.90708 13.1176 8.87247Z" fill="#FFFBF9"/>
<path d="M15.5132 10.2894C15.5083 10.2902 15.5034 10.2902 15.4985 10.2894C15.4925 10.2894 15.3538 10.235 15.3836 10.0238C15.4063 9.8614 15.6684 9.59266 15.6982 9.56263C15.7022 9.55836 15.7071 9.55494 15.7124 9.55258C15.7178 9.55022 15.7236 9.54896 15.7294 9.54889C15.7353 9.54882 15.7411 9.54993 15.7465 9.55216C15.7519 9.55438 15.7568 9.55768 15.761 9.56186C15.7651 9.56604 15.7684 9.571 15.7706 9.57647C15.7728 9.58194 15.7739 9.5878 15.7738 9.59371C15.7737 9.59962 15.7725 9.60545 15.7702 9.61086C15.7678 9.61628 15.7644 9.62116 15.7602 9.62524C15.6851 9.70158 15.4864 9.92299 15.4703 10.036C15.4506 10.1765 15.5273 10.206 15.5278 10.206C15.5375 10.2095 15.5457 10.2163 15.551 10.2253C15.5562 10.2343 15.5581 10.2449 15.5563 10.2552C15.5546 10.2655 15.5493 10.2748 15.5414 10.2816C15.5335 10.2883 15.5235 10.292 15.5132 10.292V10.2894Z" fill="#544743"/>
<path d="M14.1534 20.1589C14.1441 20.159 14.1351 20.1559 14.1277 20.1503C14.123 20.1469 14.1191 20.1426 14.1161 20.1377C14.1131 20.1328 14.111 20.1273 14.1102 20.1215C14.1093 20.1158 14.1095 20.1099 14.1109 20.1043C14.1122 20.0987 14.1147 20.0934 14.1181 20.0887C14.8119 19.1318 15.1941 18.0986 15.2541 17.0165C15.3045 16.1513 15.1457 15.2514 14.7882 14.3439C14.4048 13.3864 13.8588 12.5039 13.1748 11.7359C13.1706 11.7318 13.1674 11.7268 13.1652 11.7214C13.1629 11.716 13.1618 11.7101 13.1619 11.7042C13.1619 11.6984 13.1631 11.6925 13.1654 11.6871C13.1677 11.6817 13.171 11.6768 13.1752 11.6727C13.1794 11.6687 13.1844 11.6654 13.1898 11.6633C13.1952 11.6612 13.201 11.6601 13.2068 11.6603C13.2127 11.6604 13.2184 11.6618 13.2237 11.6642C13.229 11.6666 13.2338 11.67 13.2378 11.6743C13.9299 12.4496 14.4826 13.341 14.8709 14.3083C15.2334 15.2285 15.3927 16.1406 15.3438 17.0201C15.2833 18.12 14.8951 19.17 14.1912 20.1411C14.1869 20.147 14.1811 20.1517 14.1745 20.1548C14.1679 20.1579 14.1607 20.1593 14.1534 20.1589Z" fill="#544743"/>
<path d="M15.6909 19.7482C15.6807 19.7483 15.6708 19.7447 15.663 19.7381C15.6551 19.7314 15.6499 19.7223 15.6481 19.7121C15.6175 19.5438 15.5535 19.3836 15.46 19.241C15.3664 19.0984 15.2451 18.9764 15.1035 18.8825C14.8575 18.713 12.696 17.2263 12.5871 17.0944C12.5399 17.0326 12.5068 16.961 12.4903 16.8847L12.4842 16.8634L12.1373 14.9583C12.1354 14.9468 12.138 14.9351 12.1446 14.9256C12.1512 14.9161 12.1612 14.9096 12.1725 14.9074C12.1838 14.9053 12.1955 14.9077 12.205 14.9142C12.2146 14.9206 12.2212 14.9306 12.2235 14.942L12.5694 16.843L12.575 16.8613C12.5884 16.9254 12.6156 16.9857 12.6546 17.0379C12.7308 17.1301 14.1904 18.1475 15.1524 18.8087C15.4439 19.002 15.6491 19.3026 15.7242 19.6464C16.1724 19.4881 16.0771 18.9512 16.0373 18.7863C15.9472 18.4375 15.7315 18.1351 15.4323 17.9383L14.9528 17.6161C14.9431 17.6094 14.9364 17.599 14.9343 17.5873C14.9322 17.5756 14.9347 17.5636 14.9414 17.5538C14.9481 17.544 14.9584 17.5373 14.97 17.5352C14.9815 17.533 14.9935 17.5356 15.0032 17.5423L15.4787 17.865C15.7963 18.0741 16.0253 18.3951 16.121 18.7654C16.2178 19.1568 16.1588 19.6205 15.701 19.7462C15.6977 19.7473 15.6944 19.7479 15.6909 19.7482Z" fill="#544743"/>
<path d="M16.1989 18.1505H16.1933C16.1875 18.1497 16.1819 18.1478 16.1769 18.1448C16.1718 18.1418 16.1674 18.1378 16.1639 18.133C16.1604 18.1283 16.1578 18.1229 16.1564 18.1172C16.155 18.1115 16.1546 18.1055 16.1555 18.0996C16.1908 17.8136 16.0768 17.4334 15.8716 17.1535C15.8032 17.0611 15.7192 16.9815 15.6236 16.9183L15.1431 16.5951C15.1383 16.5919 15.1342 16.5878 15.1309 16.583C15.1277 16.5782 15.1255 16.5728 15.1244 16.5671C15.1233 16.5614 15.1233 16.5556 15.1244 16.5499C15.1255 16.5442 15.1278 16.5388 15.131 16.534C15.1342 16.5292 15.1383 16.525 15.1431 16.5218C15.1479 16.5185 15.1533 16.5163 15.159 16.5151C15.1646 16.514 15.1705 16.514 15.1761 16.5151C15.1818 16.5163 15.1872 16.5186 15.192 16.5218L15.672 16.8445C15.7759 16.913 15.8674 16.9991 15.9422 17.099C16.1636 17.4008 16.281 17.7973 16.2447 18.1093C16.244 18.1209 16.2387 18.1317 16.2301 18.1394C16.2216 18.1471 16.2103 18.1511 16.1989 18.1505Z" fill="#544743"/>
<path d="M14.1494 9.32392C14.1444 9.32407 14.1394 9.32321 14.1348 9.32138L13.8202 9.21246C13.8147 9.21055 13.8097 9.20758 13.8053 9.20371C13.801 9.19984 13.7975 9.19515 13.795 9.1899C13.7899 9.1793 13.7891 9.16709 13.7929 9.15596C13.7968 9.14482 13.8048 9.13567 13.8153 9.13051C13.8258 9.12536 13.8379 9.12463 13.8489 9.12847L14.1635 9.23841C14.169 9.24025 14.174 9.24316 14.1784 9.24698C14.1827 9.25079 14.1862 9.25544 14.1888 9.26065C14.1913 9.26586 14.1928 9.27153 14.1931 9.27732C14.1935 9.28312 14.1927 9.28892 14.1908 9.2944C14.1877 9.30303 14.1821 9.31051 14.1747 9.31579C14.1673 9.32108 14.1585 9.32392 14.1494 9.32392Z" fill="#544743"/>
<path d="M28.9043 26.6245H27.1583C26.8315 26.6245 26.6043 26.4669 26.4766 26.1517L23.1115 18.713V29.2259C23.1144 29.2899 23.1035 29.3537 23.0797 29.4131C23.0558 29.4725 23.0196 29.526 22.9734 29.5699C22.8841 29.6546 22.7656 29.7008 22.6431 29.6987H20.4282C20.1159 29.6987 19.9598 29.5411 19.9598 29.2259V15.1227C19.9577 14.9992 20.0035 14.8797 20.0873 14.7898C20.1309 14.7431 20.1838 14.7064 20.2426 14.6823C20.3015 14.6581 20.3647 14.6471 20.4282 14.6498H24.1764C24.5031 14.6498 24.7304 14.7932 24.8581 15.0799L28.0739 22.4326L31.3108 15.0799C31.4527 14.7935 31.6868 14.6502 32.0132 14.6498H35.655C35.7202 14.6476 35.7852 14.6588 35.8459 14.6829C35.9066 14.707 35.9617 14.7433 36.008 14.7898C36.0524 14.8328 36.0876 14.8845 36.1115 14.9417C36.1353 14.999 36.1473 15.0606 36.1466 15.1227V29.2259C36.1494 29.2899 36.1384 29.3538 36.1145 29.4132C36.0906 29.4725 36.0542 29.526 36.008 29.5699C35.9115 29.6577 35.7848 29.7039 35.655 29.6987H33.4618C33.1492 29.6987 32.9929 29.5411 32.9929 29.2259V18.713L29.6072 26.1517C29.4798 26.4672 29.2455 26.6248 28.9043 26.6245Z" fill="#544743"/>
<path d="M39.4143 20.5514C40.4563 19.4693 41.7661 18.9283 43.3435 18.9283C44.921 18.9283 46.2023 19.4478 47.1876 20.4868C48.1744 21.5261 48.6679 22.7476 48.6679 24.1514V24.7316C48.6679 25.0614 48.4904 25.2263 48.1355 25.2263H41.0222C41.0931 25.871 41.3593 26.3905 41.8208 26.7848C42.274 27.1763 42.8536 27.3867 43.4499 27.3762C44.3303 27.3762 45.0686 27.0393 45.6649 26.3654C45.8635 26.1649 46.0484 26.1291 46.2195 26.258L47.8586 27.332C48.1141 27.504 48.1425 27.719 47.9439 27.9768C46.9213 29.3246 45.4022 29.9983 43.3864 29.998C41.7679 29.998 40.4402 29.4748 39.4032 28.4283C38.3662 27.3818 37.8481 26.0777 37.8488 24.5158C37.8491 22.955 38.3709 21.6335 39.4143 20.5514ZM45.6437 23.2922C45.5163 22.6899 45.2395 22.2278 44.8133 21.9058C44.3973 21.5865 43.8878 21.4162 43.3652 21.4218C42.846 21.4197 42.342 21.5982 41.9378 21.9272C41.5123 22.2641 41.2284 22.7191 41.0862 23.2922H45.6437Z" fill="#544743"/>
<path d="M50.9784 20.5514C52.0204 19.4693 53.3302 18.9283 54.9077 18.9283C56.4851 18.9283 57.7665 19.4478 58.7517 20.4868C59.7386 21.5261 60.232 22.7476 60.232 24.1514V24.7316C60.232 25.0614 60.0545 25.2263 59.6996 25.2263H52.5878C52.6591 25.871 52.9253 26.3905 53.3865 26.7848C53.8397 27.1763 54.4192 27.3867 55.0156 27.3762C55.8959 27.3762 56.6342 27.0393 57.2305 26.3654C57.4292 26.1649 57.614 26.1291 57.7851 26.258L59.4228 27.332C59.6786 27.504 59.707 27.719 59.508 27.9768C58.4855 29.3246 56.9663 29.9983 54.9505 29.998C53.3317 29.998 52.004 29.4748 50.9673 28.4283C49.9307 27.3818 49.412 26.0784 49.4114 24.5178C49.4114 22.9556 49.9337 21.6335 50.9784 20.5514ZM57.2078 23.2922C57.0801 22.6899 56.8033 22.2278 56.3774 21.9058C55.9613 21.5864 55.4516 21.4161 54.9288 21.4218C54.4098 21.4198 53.906 21.5982 53.502 21.9272C53.0764 22.2641 52.7925 22.7191 52.6504 23.2922H57.2078Z" fill="#544743"/>
<path d="M66.8342 19.0784H67.1322C67.473 19.0784 67.6435 19.272 67.6435 19.6592V21.7872C67.6435 21.9884 67.5831 22.1353 67.4625 22.228C67.3574 22.3157 67.2261 22.365 67.0899 22.3679H66.5352C65.186 22.3679 64.5115 23.1204 64.5119 24.6252V29.2691C64.5138 29.3283 64.5024 29.3871 64.4783 29.4411C64.4543 29.4951 64.4184 29.5428 64.3732 29.5806C64.2813 29.6593 64.164 29.7013 64.0435 29.6987H61.8926C61.8334 29.7002 61.7746 29.6896 61.7196 29.6675C61.6647 29.6453 61.6148 29.6121 61.5729 29.5699C61.5311 29.5277 61.4982 29.4773 61.4763 29.4218C61.4543 29.3663 61.4438 29.3069 61.4453 29.2472V19.7019C61.4433 19.5784 61.489 19.459 61.5729 19.3691C61.613 19.3238 61.6624 19.2879 61.7175 19.2637C61.7727 19.2396 61.8324 19.2278 61.8926 19.2291H63.9371C64.0526 19.2298 64.1633 19.276 64.2457 19.3579C64.2889 19.3951 64.3236 19.4413 64.3475 19.4933C64.3715 19.5452 64.384 19.6018 64.3843 19.6592V20.5188C64.981 19.5589 65.7976 19.0788 66.8342 19.0784Z" fill="#544743"/>
<path d="M71.8388 29.2472C71.8403 29.3069 71.8297 29.3663 71.8078 29.4218C71.7859 29.4773 71.753 29.5276 71.7112 29.5699C71.6693 29.6121 71.6194 29.6453 71.5645 29.6674C71.5095 29.6896 71.4507 29.7002 71.3915 29.6987H69.2406C69.1181 29.7009 68.9996 29.6547 68.9104 29.5699C68.8656 29.5294 68.8301 29.4795 68.8063 29.4238C68.7824 29.3681 68.7708 29.3079 68.7722 29.2472V15.1013C68.7709 15.0406 68.7825 14.9804 68.8064 14.9247C68.8302 14.869 68.8657 14.8192 68.9104 14.7786C68.9996 14.6938 69.1181 14.6476 69.2406 14.6498H71.3915C71.4507 14.6483 71.5095 14.6589 71.5645 14.681C71.6194 14.7032 71.6693 14.7364 71.7112 14.7786C71.753 14.8208 71.7859 14.8712 71.8078 14.9267C71.8297 14.9822 71.8403 15.0416 71.8388 15.1013V22.884H72.584L74.9481 19.5955C75.0897 19.3522 75.2955 19.2304 75.5658 19.2301H77.8659C78.0787 19.2301 78.217 19.309 78.2809 19.4667C78.3448 19.6245 78.3128 19.7964 78.1851 19.9823L75.2265 23.8709L78.6767 28.923C78.8044 29.1093 78.8293 29.2849 78.7513 29.4498C78.6733 29.6147 78.5135 29.697 78.2718 29.6966H75.8653C75.5964 29.6966 75.3834 29.5677 75.2265 29.3098L72.6495 25.3754H71.8428L71.8388 29.2472Z" fill="#544743"/>
<path d="M80.6877 28.4517C79.6581 27.4195 79.1435 26.0865 79.1438 24.4527C79.1441 22.8189 79.6588 21.4896 80.6877 20.4649C81.7169 19.4405 82.9344 18.9281 84.3401 18.9278C85.0073 18.9278 85.6071 19.0603 86.1396 19.3253C86.672 19.5903 87.0659 19.9306 87.3214 20.3463V19.7019C87.3208 19.6398 87.3327 19.5783 87.3566 19.521C87.3804 19.4638 87.4156 19.4121 87.4601 19.3691C87.4994 19.3258 87.547 19.291 87.6001 19.267C87.6531 19.2429 87.7105 19.23 87.7686 19.2291H89.9201C89.9801 19.2278 90.0397 19.2397 90.0948 19.2638C90.1499 19.288 90.1992 19.3239 90.2392 19.3691C90.3233 19.4589 90.3692 19.5784 90.3673 19.7019V29.2473C90.3687 29.307 90.3582 29.3663 90.3362 29.4218C90.3142 29.4772 90.2813 29.5275 90.2395 29.5698C90.1977 29.612 90.1478 29.6452 90.0929 29.6673C90.038 29.6895 89.9792 29.7002 89.9201 29.6987H87.7686C87.6531 29.698 87.5424 29.6518 87.4601 29.57C87.4153 29.5294 87.3797 29.4796 87.3557 29.4239C87.3318 29.3682 87.3201 29.308 87.3214 29.2473V28.581C87.0663 28.997 86.6723 29.3374 86.1396 29.602C85.6068 29.8667 84.9999 29.9994 84.3189 30C82.9273 30 81.7169 29.4839 80.6877 28.4517ZM82.9772 22.5929C82.4942 23.1168 82.2529 23.7446 82.2532 24.4761C82.2535 25.2077 82.4949 25.8354 82.9772 26.3593C83.4596 26.8829 84.0629 27.1445 84.7873 27.1442C85.5117 27.1438 86.115 26.8822 86.5974 26.3593C87.0801 25.8365 87.3214 25.2087 87.3214 24.4761C87.3214 23.7435 87.0801 23.1158 86.5974 22.5929C86.1147 22.0704 85.5113 21.8089 84.7873 21.8086C84.0633 21.8083 83.4599 22.0699 82.9772 22.5934V22.5929Z" fill="#544743"/>
<path d="M93.1991 26.5817V21.8304H91.8378C91.7777 21.8318 91.7179 21.8201 91.6627 21.7959C91.6075 21.7717 91.5582 21.7358 91.5181 21.6904C91.4342 21.6006 91.3884 21.4811 91.3906 21.3576V19.7019C91.3885 19.5784 91.4343 19.4589 91.5181 19.369C91.5583 19.3238 91.6076 19.2879 91.6628 19.2637C91.718 19.2395 91.7777 19.2277 91.8378 19.229H93.1991V16.4556C93.1963 16.3916 93.2073 16.3277 93.2312 16.2683C93.2551 16.2089 93.2915 16.1554 93.3378 16.1116C93.4268 16.0268 93.5452 15.9806 93.6675 15.9828H95.8401C95.9004 15.9837 95.9599 15.9966 96.0152 16.0209C96.0705 16.0453 96.1204 16.0805 96.162 16.1245C96.2037 16.1685 96.2362 16.2205 96.2577 16.2773C96.2792 16.3342 96.2893 16.3948 96.2874 16.4556V19.229H99.2047C99.332 19.2289 99.4544 19.2791 99.5455 19.369C99.5929 19.4102 99.631 19.4613 99.6571 19.5188C99.6832 19.5762 99.6968 19.6387 99.6968 19.7019V21.3576C99.6946 21.4188 99.68 21.479 99.654 21.5344C99.628 21.5898 99.5911 21.6393 99.5455 21.6798C99.5021 21.7275 99.4495 21.7657 99.3908 21.7919C99.3322 21.8182 99.2688 21.832 99.2047 21.8325H96.2874V25.8534C96.2874 26.3118 96.3938 26.627 96.6065 26.799C96.8106 26.9678 97.0667 27.0591 97.3306 27.0571C97.6142 27.0571 97.9267 26.9568 98.2679 26.7563C98.651 26.5126 98.9421 26.5413 99.1411 26.8423L99.8863 28.0445C100.057 28.3159 100.035 28.574 99.8223 28.8186C99.1124 29.5651 98.0902 29.9384 96.7558 29.9384C95.7618 29.9384 94.9215 29.659 94.2348 29.1001C93.548 28.5413 93.2028 27.7018 93.1991 26.5817Z" fill="#544743"/>
</svg>
