<svg xmlns="http://www.w3.org/2000/svg" width="195" height="360" fill="none" xmlns:v="https://vecta.io/nano"><style><![CDATA[.B{fill:#544743}.C{fill:#fff4f0}.D{fill:#fce4de}.E{fill:#e2c7bc}]]></style><g class="C"><path d="M123.465 47.49s28.488-7.287 36.522-10.933 7.923-8.246 6.576-10.933c-1.47-2.916-6.576-5.832-24.105-17.495s-38.712-10.206-48.2.73c-7.452 8.58-6.582 25.917-5.862 32.98l.685 9.408 6.92 138.255a215.57 215.57 0 0 1-12.347 83.563c-4.27 11.9-9.142 22.262-12.793 28.094-9.68 15.454-25.575 32.072-29.22 40.09-3.154 6.93-2.2 16.037-2.2 16.037l8.18-6.184a78.54 78.54 0 0 0 16.462-16.929c5.236-7.333 13.123-17.774 21.4-26.454 14.892-15.62 31.017-26.246 32.87-51.755l24.837-11.66v-54.67s39.436-65.605-12.426-123.922"/><path d="M140.99 234.826s9.192 15.926 8.446 40.336a60.16 60.16 0 0 1-2.123 14.036c-6.467 23.673-20.933 45.507-40.655 48.423v18.21L93.5 357.3l.73-43.008 16.07-66.332 23.376-17.495 7.305 4.362z"/><path d="M123.46 355.83l-14.6.73V329.6h9.495l5.115 26.24zm35.28-332.027l-3.97 4.864s-1.878 2.27-.588 4.218 2.408 2.64 2.83 1.965 5.533-3.813 4.277-7.43-2.55-3.617-2.55-3.617z"/></g><path d="M151.65 143.463c-5.247 2.077-11.64-1.608-14.275-8.235l-24.822-62.445c-2-5.03-1.916-10.65.234-15.618s6.19-8.883 11.23-10.88c9.53 12.547 17.278 26.35 23.023 41.013a170.75 170.75 0 0 1 10.624 41.864c.214 1.373.588 4.694-.688 8.126-1.51 4.083-4.374 5.7-5.327 6.175z" class="D"/><path d="M118.3 359.12H95.324V247.94a.74.74 0 0 1 .743-.695c.2 0 .37.072.5.2s.22.306.233.495v109.7h19.308c-1.035-2.08-3.913-6.747-9.157-7.27a.74.74 0 0 1-.607-.802.74.74 0 0 1 .246-.48.7.7 0 0 1 .508-.186c7.68.766 10.724 8.886 10.85 9.23l.353.995zm13.877 0H119.35c-.106.016-.214.01-.318-.02a.74.74 0 0 1-.28-.15.77.77 0 0 1-.192-.253.74.74 0 0 1-.068-.31c0-.106.023-.213.068-.3a.84.84 0 0 1 .192-.253.74.74 0 0 1 .28-.15c.104-.03.212-.036.318-.02h10.636c-1.032-2.08-3.913-6.747-9.157-7.27a.74.74 0 0 1-.46-.282c-.112-.148-.164-.334-.146-.52s.107-.357.246-.48.32-.2.508-.185c7.68.766 10.724 8.886 10.85 9.23l.362.974z" class="B"/><path d="M92.69 19.793s-2.47-6.16 3.704-2.464l-3.704 2.464z" class="C"/><path d="M91.317 21.263a.74.74 0 0 1-.416-.127c-.123-.083-.218-.2-.272-.34-.238-.587-1.355-3.626.11-4.867 1.017-.865 2.716-.534 5.344 1.04.1.047.17.11.234.2a.74.74 0 0 1 .16.567.74.74 0 0 1-.1.284c-.052.087-.122.162-.204.22s-.176.1-.275.122-.202.023-.3.003-.194-.06-.278-.116c-2.857-1.7-3.548-1.244-3.616-1.173-.426.36-.182 1.97.294 3.192a.74.74 0 0 1-.007.567.74.74 0 0 1-.407.395.76.76 0 0 1-.265.041z" class="B"/><path d="M113.964 11.045c7.48-1.9 20.02-3.588 29.46 8.82.163.214.245.48.23.75a1.13 1.13 0 0 1-.312.718c-.99 1.074-3.554 2.842-9.657 2.842-8.766 0-18.993-8.748-19.722-9.475s-2.24-3.086 0-3.655z" class="E"/><path d="M154.502 34.748a.72.72 0 0 1-.247-.044c-.1-.035-2.455-.912-1.946-4.447.388-2.716 4.818-7.205 5.32-7.706a.74.74 0 0 1 .524-.217c.197 0 .386.078.525.217a.74.74 0 0 1 0 1.047c-1.27 1.27-4.63 4.987-4.903 6.87-.335 2.347.964 2.837.976 2.84a.74.74 0 0 1 .48.825c-.03.172-.12.328-.253.44a.74.74 0 0 1-.477.175zm-15.348 60.708C128.865 73.502 115.05 59.1 114.9 58.94a.74.74 0 0 1-.209-.527c.004-.196.085-.383.226-.52s.332-.2.53-.208a.73.73 0 0 1 .52.226c.15.155 13.2 13.746 23.464 34.67m26.677 73.672a.47.47 0 0 1-.092 0c-.097-.012-.2-.042-.275-.1s-.16-.112-.22-.2a.73.73 0 0 1-.131-.259c-.026-.094-.033-.193-.02-.3.602-4.785-1.33-11.147-4.8-15.84a16.69 16.69 0 0 0-4.2-3.934l-8.128-5.4a.72.72 0 0 1-.217-.202c-.057-.082-.1-.174-.122-.27a.76.76 0 0 1 .107-.572.75.75 0 0 1 .211-.209c.084-.055.178-.093.276-.1a.74.74 0 0 1 .297.006c.098.022.2.064.27.123l8.13 5.4a18.22 18.22 0 0 1 4.571 4.286c3.742 5.048 5.735 11.68 5.082 16.9a.74.74 0 0 1-.737.651zM131.42 18.596a.77.77 0 0 1-.241-.041l-5.327-1.834a.74.74 0 0 1-.459-.942c.065-.186.2-.338.377-.424s.38-.098.567-.034l5.327 1.833a.74.74 0 0 1 .495.825.74.74 0 0 1-.255.444c-.136.113-.308.174-.484.172z" class="B"/><g class="E"><path d="M120.655 182.757a.44.44 0 0 0 .441-.44.43.43 0 0 0-.13-.31.45.45 0 0 0-.31-.13.44.44 0 0 0-.312.129c-.083.082-.13.194-.13.3a.44.44 0 0 0 .129.311c.082.082.195.13.312.13zM77.586 72.65s26.27-6.724 33.68-10.082 7.302-7.604 6.062-10.082c-1.35-2.7-6.062-5.377-22.23-16.134s-35.696-9.4-44.453.672c-6.873 7.92-6.068 23.9-5.406 30.4l.644 8.674 6.376 127.486a198.76 198.76 0 0 1-11.371 77.051C36.95 291.62 32.46 301.182 29.1 306.553 20.165 320.8 5.517 336.128 2.148 343.515c-2.9 6.4-2.02 14.787-2.02 14.787l7.514-5.697a72.27 72.27 0 0 0 15.183-15.612c4.83-6.77 12.1-16.386 19.734-24.4C56.293 298.2 71.16 288.4 72.867 264.88l22.906-10.752v-50.4s36.37-60.492-11.465-114.263"/><path d="M93.75 245.4s8.478 14.685 7.8 37.18a55.43 55.43 0 0 1-1.958 12.945c-5.965 21.828-19.302 41.95-37.49 44.648v16.805l-12.12 1.344.673-39.658 14.82-61.163 21.554-16.134 6.732 4.034z"/><path d="M77.586 356.968l-13.47.67v-24.87h8.754l4.715 24.2z"/></g><path d="M74.555 334.462c-.134 0-.265-.04-.377-.114s-.2-.18-.252-.302a.68.68 0 0 1-.044-.39c.024-.132.086-.253.18-.35 21.016-22 22.812-44.882 20.622-60.207-2.384-16.64-9.848-28.23-9.924-28.343a.68.68 0 0 1 .203-.939c.15-.1.334-.134.51-.098s.332.14.432.29c.076.117 7.7 11.92 10.124 28.845 2.25 15.632.435 38.977-20.977 61.395-.064.067-.14.12-.226.158a.68.68 0 0 1-.27.056z" class="B"/><path d="M110.125 50.806l-3.663 4.488s-1.732 2.092-.532 3.887 2.22 2.432 2.607 1.813 5.103-3.52 3.945-6.85-2.357-3.338-2.357-3.338z" class="C"/><path d="M103.584 161.143c-4.842 1.918-10.736-1.482-13.164-7.592L67.532 95.973c-.913-2.298-1.364-4.752-1.326-7.224s.563-4.91 1.546-7.18a18.82 18.82 0 0 1 4.182-6.043c1.778-1.72 3.88-3.075 6.182-3.986a157.29 157.29 0 0 1 21.23 37.815c4.885 12.403 8.174 25.373 9.79 38.602.2 1.267.538 4.33-.632 7.492-1.402 3.767-4.042 5.26-4.918 5.694z" class="D"/><path d="M91.743 190.78h-1.37v65.367h1.37V190.78zM72.838 360H51.643V257.5a.68.68 0 0 1 .201-.483c.128-.128.303-.2.484-.2s.356.072.484.2a.68.68 0 0 1 .201.483v101.147h17.794c-.952-1.922-3.607-6.222-8.443-6.703a.68.68 0 0 1-.256-.078c-.08-.042-.15-.1-.207-.17a.69.69 0 0 1-.126-.236.68.68 0 0 1-.026-.265c.01-.1.035-.176.078-.256s.1-.15.17-.206a.69.69 0 0 1 .236-.125c.086-.025.177-.035.266-.026 7.082.707 9.9 8.193 9.995 8.507l.344.92zm12.796 0h-11.85a.68.68 0 0 1-.276-.039.65.65 0 0 1-.237-.144.71.71 0 0 1-.16-.227.69.69 0 0 1-.056-.272.68.68 0 0 1 .056-.272c.037-.086.092-.163.16-.227a.7.7 0 0 1 .513-.183h9.818c-.952-1.922-3.607-6.222-8.443-6.703a.69.69 0 0 1-.462-.247.68.68 0 0 1-.152-.5c.018-.18.107-.347.248-.462s.32-.17.502-.15c7.084.706 9.9 8.193 9.995 8.507l.344.92z" class="B"/><path d="M49.215 47.1s-2.278-5.68 3.413-2.273L49.215 47.1z" class="C"/><path d="M47.95 48.465a.69.69 0 0 1-.638-.431c-.218-.55-1.246-3.34.103-4.488.935-.798 2.502-.5 4.927.962.077.046.145.107.198.18s.092.154.114.24.026.178.013.267-.044.174-.1.25-.107.144-.18.198-.155.092-.242.114-.178.026-.267.013-.175-.044-.252-.1c-2.646-1.578-3.272-1.147-3.334-1.09-.394.33-.168 1.816.294 2.934a.68.68 0 0 1-.011.518c-.072.165-.205.295-.372.362-.083.038-.173.06-.265.062z" class="B"/><path d="M68.83 39.043c6.9-1.76 18.458-3.306 27.165 8.135a1.05 1.05 0 0 1-.073 1.346c-.917.99-3.278 2.62-8.907 2.62-8.084 0-17.512-8.067-18.185-8.74s-2.067-2.837 0-3.362z" class="D"/><g class="B"><path d="M106.212 60.9a.75.75 0 0 1-.23-.04c-.092-.032-2.26-.842-1.797-4.107.36-2.505 4.445-6.644 4.9-7.108.13-.126.302-.197.483-.196a.68.68 0 0 1 .483 1.163c-1.176 1.173-4.27 4.6-4.52 6.333-.294 2.165.882 2.617.9 2.62a.69.69 0 0 1 .365.298c.082.14.112.303.085.463s-.1.304-.235.408a.69.69 0 0 1-.444.16v.006zM84.994 213.14c-.145-.001-.286-.047-.403-.132a.69.69 0 0 1-.181-.196.65.65 0 0 1-.09-.25.7.7 0 0 1 .012-.266.69.69 0 0 1 .113-.242c10.82-14.755 16.785-30.698 17.726-47.384.753-13.36-1.693-27.232-7.27-41.23-9.516-23.888-25.06-40.072-25.216-40.23a.69.69 0 0 1-.145-.224.68.68 0 0 1 .161-.742c.065-.062.14-.112.225-.144a.7.7 0 0 1 .263-.048c.1.002.18.02.26.056s.157.087.22.152c.16.16 15.874 16.507 25.487 40.634 5.658 14.2 8.142 28.26 7.385 41.826-.953 16.964-7.005 33.148-18 48.14a.68.68 0 0 1-.245.205.67.67 0 0 1-.31.074z"/><path d="M108.987 206.78a.7.7 0 0 1-.365-.103.69.69 0 0 1-.201-.195.68.68 0 0 1-.107-.259c-.474-2.596-1.47-5.07-2.93-7.27s-3.35-4.083-5.56-5.533c-3.845-2.6-37.57-25.545-39.27-27.575-.917-1.097-1.258-2.347-1.508-3.227l-.094-.334-5.415-29.396a.68.68 0 0 1 1.054-.667c.146.098.252.248.3.42l5.4 29.317.08.294c.23.827.514 1.854 1.244 2.725 1.194 1.426 23.967 17.12 38.982 27.32a20.87 20.87 0 0 1 8.922 12.934c7-2.44 5.518-10.72 4.88-13.262-1.323-5.28-4.68-9.915-9.45-13.083l-7.484-4.973a.68.68 0 0 1-.19-.949c.1-.15.258-.255.436-.3a.69.69 0 0 1 .515.102l7.482 4.972c5.056 3.36 8.616 8.293 10.02 13.888 1.517 6.042.588 13.2-6.55 15.13-.06.014-.12.02-.182.015zm7.925-24.6h-.085a.68.68 0 0 1-.587-.762c.553-4.415-1.226-10.28-4.427-14.603a15.38 15.38 0 0 0-3.874-3.625l-7.497-4.987a.69.69 0 0 1-.206-.185.67.67 0 0 1-.117-.252.68.68 0 0 1-.006-.277c.016-.1.052-.18.104-.256a.68.68 0 0 1 .984-.165l7.496 4.986c1.623 1.065 3.05 2.402 4.215 3.952 3.452 4.655 5.292 10.772 4.686 15.583a.68.68 0 0 1-.23.425c-.126.1-.288.17-.455.167zM84.93 46.007a.75.75 0 0 1-.224-.038l-4.912-1.693c-.1-.026-.17-.07-.243-.13a.67.67 0 0 1-.172-.214.68.68 0 0 1 .102-.772c.062-.068.138-.124.222-.162s.175-.06.268-.062.185.014.27.048l4.9 1.7c.155.052.286.156.37.296a.68.68 0 0 1 .089.464c-.027.16-.1.306-.234.4a.7.7 0 0 1-.445.16z"/></g><g class="E"><path d="M162.17 129.975s20.707-5.3 26.554-7.94 5.76-5.993 4.78-7.947c-1.06-2.12-4.78-4.24-17.52-12.717s-28.142-7.42-35.044.528c-5.415 6.24-4.783 18.842-4.26 23.976l.508 6.835 5.024 100.492a156.68 156.68 0 0 1-8.963 60.723c-3.104 8.65-6.644 16.18-9.298 20.42-7.035 11.232-18.585 23.313-21.24 29.138-2.293 5.037-1.593 11.658-1.593 11.658l5.93-4.494c4.588-3.477 8.622-7.626 11.967-12.306 3.822-5.336 9.54-12.907 15.554-19.23 10.827-11.353 22.547-19.068 23.893-37.616l18.05-8.478V233.29s28.67-47.684-9.025-90.058"/><path d="M174.91 266.138s6.685 11.576 6.14 29.306c-.11 3.45-.627 6.876-1.544 10.205-4.703 17.205-15.215 33.075-29.55 35.202V354.1l-9.557 1.06.53-31.26 11.683-48.214 17.005-12.726 5.292 3.18z"/><path d="M162.17 354.1l-10.618.528v-19.602h6.9l3.718 19.074z"/></g><path d="M159.78 336.348a.54.54 0 0 1-.373-.15c-.05-.048-.092-.107-.12-.17s-.044-.134-.046-.205.01-.14.037-.206a.54.54 0 0 1 .112-.177c16.568-17.346 17.985-35.38 16.257-47.458-1.88-13.12-7.764-22.254-7.823-22.344a.54.54 0 0 1 .177-.717c.116-.075.255-.103.4-.08a.54.54 0 0 1 .339.209c.06.09 6.058 9.387 7.978 22.734 1.764 12.32.344 30.726-16.536 48.403a.51.51 0 0 1-.179.12.53.53 0 0 1-.212.041z" class="B"/><path d="M187.82 112.755l-2.9 3.538s-1.364 1.648-.417 3.065 1.764 1.916 2.058 1.43 4.024-2.77 3.1-5.4-1.86-2.63-1.86-2.63zm-5.156 86.975c-3.822 1.5-8.463-1.173-10.377-5.984l-18.044-45.387c-1.453-3.658-1.4-7.74.173-11.353a14.88 14.88 0 0 1 8.164-7.908 124.94 124.94 0 0 1 24.452 60.239 11.99 11.99 0 0 1-.5 5.905c-1.096 2.968-3.177 4.145-3.868 4.488z" class="C"/><path d="M173.327 223.1h-1.078v51.527h1.078V223.1zm-14.897 133.4h-16.7v-80.806a.54.54 0 0 1 .539-.5c.137 0 .268.05.37.144a.54.54 0 0 1 .171.356v79.73h14.028c-.75-1.514-2.843-4.902-6.656-5.28a.55.55 0 0 1-.201-.061.58.58 0 0 1-.162-.133.55.55 0 0 1-.1-.186.54.54 0 0 1 .041-.409c.033-.063.08-.118.133-.162a.53.53 0 0 1 .395-.12c5.586.557 7.796 6.454 7.887 6.7l.265.72zm10.085 0h-9.33a.56.56 0 0 1-.219-.029c-.07-.025-.135-.064-.2-.114s-.098-.112-.128-.18-.045-.142-.045-.216a.53.53 0 0 1 .045-.215c.03-.07.073-.13.128-.18a.54.54 0 0 1 .189-.114c.07-.025.145-.035.22-.03h7.73c-.752-1.514-2.846-4.902-6.658-5.28a.54.54 0 0 1-.364-.196c-.1-.1-.133-.252-.118-.394a.54.54 0 0 1 .591-.481c5.585.557 7.795 6.454 7.887 6.7l.26.72z" class="B"/><path d="M139.806 109.842s-1.793-4.476 2.693-1.792l-2.693 1.792z" class="C"/><path d="M138.8 110.9c-.108 0-.214-.033-.303-.094a.54.54 0 0 1-.2-.246c-.17-.432-.982-2.64.08-3.538.74-.628 1.975-.387 3.886.757.065.034.123.08.17.138a.53.53 0 0 1 .101.194c.02.07.025.145.016.218a.54.54 0 0 1-.221.367c-.06.043-.128.073-.2.09s-.146.016-.22.002-.14-.043-.202-.084c-2.075-1.244-2.578-.904-2.63-.86-.308.26-.13 1.432.224 2.318.033.08.046.17.036.258s-.04.17-.09.244a.53.53 0 0 1-.194.174c-.078.042-.165.063-.253.063z" class="B"/><path d="M155.27 103.482c5.438-1.38 14.55-2.605 21.415 6.413a.83.83 0 0 1-.058 1.059c-.723.78-2.584 2.053-7.023 2.053-6.37 0-13.817-6.356-14.334-6.887s-1.63-2.224 0-2.638z" class="C"/><g class="B"><path d="M184.736 120.7c-.062 0-.123-.01-.182-.03-.074-.026-1.782-.666-1.414-3.226.294-1.978 3.5-5.24 3.868-5.603.05-.05.1-.1.175-.117a.53.53 0 0 1 .207-.042.54.54 0 0 1 .206.041.53.53 0 0 1 .175.116.55.55 0 0 1 .118.175c.027.065.04.135.04.205s-.014.14-.04.206a.53.53 0 0 1-.116.175c-.926.924-3.37 3.62-3.566 4.987-.244 1.705.7 2.054.708 2.054a.53.53 0 0 1 .355.598c-.02.125-.087.24-.185.32s-.22.126-.35.125v.015zM168 240.717a.55.55 0 0 1-.281-.081.54.54 0 0 1-.154-.776c8.525-11.63 13.23-24.198 13.976-37.352.587-10.528-1.335-21.464-5.733-32.5-7.5-18.83-19.75-31.585-19.875-31.7a.56.56 0 0 1-.123-.177.53.53 0 0 1 .121-.601c.052-.05.114-.1.182-.116a.55.55 0 0 1 .213-.036.55.55 0 0 1 .21.051.52.52 0 0 1 .173.128c.124.13 12.506 13.013 20.1 32.034 4.46 11.185 6.42 22.276 5.82 32.97-.75 13.37-5.52 26.137-14.18 37.947a.53.53 0 0 1-.192.163.55.55 0 0 1-.246.058z"/><path d="M186.923 235.703c-.126.001-.248-.043-.345-.123a.53.53 0 0 1-.184-.317c-.374-2.046-1.16-3.995-2.3-5.73s-2.64-3.22-4.383-4.362c-3.027-2.06-29.614-20.12-30.954-21.737a6.44 6.44 0 0 1-1.176-2.55l-.074-.264-4.268-23.175a.54.54 0 0 1 .434-.626c.14-.026.286.005.403.087s.2.205.224.346l4.257 23.1.065.223a5.4 5.4 0 0 0 .978 2.147c.94 1.123 18.9 13.494 30.73 21.535a16.45 16.45 0 0 1 7.031 10.193c5.512-1.92 4.35-8.448 3.848-10.455a17.61 17.61 0 0 0-7.47-10.3l-5.88-3.92a.53.53 0 0 1-.188-.335.55.55 0 0 1 .082-.375.54.54 0 0 1 .694-.188l5.9 3.92a18.68 18.68 0 0 1 7.899 10.948c1.197 4.76.468 10.396-5.165 11.928a.56.56 0 0 1-.147.017zm6.247-19.408h-.067c-.142-.018-.27-.1-.358-.204a.54.54 0 0 1-.11-.397c.435-3.48-.967-8.105-3.5-11.5-.85-1.123-1.887-2.1-3.066-2.86l-5.9-3.925a.54.54 0 0 1 .588-.898l5.9 3.925a13.24 13.24 0 0 1 3.324 3.115c2.72 3.67 4.17 8.5 3.693 12.283a.54.54 0 0 1-.17.33.53.53 0 0 1-.345.14zM167.957 108.97a.56.56 0 0 1-.177-.029l-3.868-1.332a.53.53 0 0 1-.196-.1c-.058-.046-.106-.103-.14-.17s-.055-.137-.06-.2a.55.55 0 0 1 .141-.406.53.53 0 0 1 .179-.128c.067-.03.14-.046.215-.047s.147.014.215.043l3.884 1.332a.53.53 0 0 1 .293.232.52.52 0 0 1 .07.367.54.54 0 0 1-.187.324c-.1.082-.225.126-.354.124h-.014z"/></g></svg>